<?xml version="1.0" encoding="utf-8"?>
<!-- Generator: Adobe Illustrator 26.0.1, SVG Export Plug-In . SVG Version: 6.00 Build 0)  -->
<svg version="1.1" id="Layer_1" xmlns="http://www.w3.org/2000/svg" xmlns:xlink="http://www.w3.org/1999/xlink" x="0px" y="0px"
	 viewBox="0 0 133 40" style="enable-background:new 0 0 133 40;" xml:space="preserve">
<style type="text/css">
	.st0{fill:#3772FF;}
	.st1{fill:#FFFFFF;}
</style>
<g>
	<circle class="st0" cx="24.5" cy="20.3" r="18"/>
	<g>
		<path class="st1" d="M24.6,17.5c4.3-1.3,6-6,3.7-6.6c-2.2-0.7-5.4,2.6-7.1,9c-1.3,5,0.7,8.9,3.1,9.4c2.1,0.4,5.3-1.6,6.1-3.9
			c0,0,0,0,0,0c0.4-0.2,0.8,0.2,0.6,1c-1.2,2.9-4.9,5.1-8.2,4.4c-3-0.7-6.4-4-5-10.5c1.7-8,7.8-11.1,11.2-10.3
			c3,0.8,3.2,6.2-0.1,8.7C26.3,20.6,24.6,17.5,24.6,17.5z"/>
	</g>
	<g>
		<path class="st0" d="M58.2,11.2c0.3-0.3,0.7-0.5,1.1-0.7c3.8-1.6,6.9,2.9,5.9,8.2c-0.3,1.5-0.9,3-1.7,4.2c1.2-0.5,2.3-1.5,2.8-2.5
			l0,0c0.4-0.1,0.7,0.2,0.4,0.9c-0.6,1.2-2.2,2.3-3.9,2.8c-2,2.7-4.8,4.4-7.3,4.2c-3-0.3-5.5-3-4.8-8.5c0.7-5.3,4.3-8.3,6.9-8.5
			L58.2,11.2z M57.4,12c-1.2,0.4-3.2,3-3.9,7.3c-0.7,4.7,1.2,7.5,3.3,7.7c1.4,0.1,2.7-1,3.7-2.7c-0.7-0.1-1.3-0.3-2-0.7
			C55.5,21.4,54.9,15.1,57.4,12z M60.9,23.5c0.7-1.4,1.2-3.1,1.5-4.7c0.7-4-0.1-7.8-2.4-7.2c-3.7,0.9-3.6,9.5-0.8,11.4
			C59.7,23.2,60.3,23.4,60.9,23.5z"/>
		<path class="st0" d="M76.4,18.1c1.2-0.6,3.1,0.1,2.8,2c-0.5,3.6-4.5,8.4-6.9,7.5c-0.8-0.3-1.5-1.5-1.7-3.4
			c-0.4,1.4-1.6,3.7-3.3,3.5c-1.7-0.2-2.2-2.4-1.4-5.2c0.8-3.2,0.5-4,0.5-4c2.8-0.9,3.1,0.6,2.2,3.7c-0.7,2.5-0.8,3.9-0.2,4.1
			c0.6,0.1,1.5-1,2.2-3.6c0-0.4,0.1-0.8,0.2-1.3c0.5-2.8,3-3,3.8-2.1c0,0-0.8,0.8-1.3,3.4c-0.4,1.9-0.3,3.9,0.6,4.1
			c0.8,0.1,2-1.6,2.5-5.5C76.5,19.3,76.4,18.4,76.4,18.1L76.4,18.1z"/>
		<path class="st0" d="M80.6,17.7c1.4-0.9,2.7,0.5,2.7,0.5s-0.5,0.4-0.9,2.9c1.4-2.5,3.2-3.6,4.3-3.3c0.9,0.3,1.2,1.9,0.5,4.8
			c-0.5,1.9-0.6,3.6,0.1,3.8c0.7,0.1,1.8-1.1,2.4-2.6h0c0.4-0.1,0.7,0.1,0.5,0.8c-0.8,2-2.6,3.5-4,3.3c-1.4-0.2-2.3-2-1.6-4.8
			c0.7-2.5,0.5-3.3,0.1-3.3c-0.4-0.1-1.2,0.7-2.5,3.8c-0.5,3.9-1.1,4.5-2.6,3.9c0,0-0.1-0.3-0.1-1C79.3,21.6,79.2,18.6,80.6,17.7z"
			/>
		<path class="st0" d="M95.5,17c3.7-1.1,5.1-5.1,3.2-5.6c-1.9-0.6-4.6,2.2-6,7.6c-1.1,4.2,0.6,7.6,2.6,8c1.8,0.4,4.5-1.3,5.2-3.3
			c0,0,0,0,0,0c0.4-0.1,0.7,0.1,0.5,0.8c-1,2.5-4.2,4.3-7,3.7c-2.5-0.6-5.4-3.4-4.3-8.9c1.5-6.8,6.6-9.5,9.5-8.8
			c2.6,0.7,2.7,5.3-0.1,7.4C96.9,19.7,95.5,17,95.5,17z"/>
		<path class="st0" d="M106.1,18.7c0.8-1.2,2-1.1,2.8-0.2c0,0-0.8,1.7-1.3,4.1c-0.3,1.9-0.3,3.7,0.3,3.8c0.7,0.1,1.6-1.1,2.1-2.6h0
			c0.4-0.1,0.7,0.1,0.5,0.8c-0.8,2-2.2,3.5-3.9,3c-1-0.3-1.5-1.4-1.5-3c-0.4,1.2-1.2,2.8-2.7,2.9c-1.8,0.1-2.8-2.1-2.2-5.1
			c0.6-3.1,2.8-5,5.1-4.3C105.5,18.2,105.8,18.4,106.1,18.7z M105.7,19.4c-0.2-0.2-0.4-0.3-0.7-0.3c-1-0.1-1.8,1.5-2.2,2.9
			c-0.4,1.6-0.5,3.7,0.2,3.8c0.6,0.1,1.4-0.8,2.1-3.3c0-0.7,0.1-1.4,0.3-2.1C105.5,20.1,105.6,19.8,105.7,19.4z"/>
		<path class="st0" d="M115.1,26.5c0.7,0.1,1.7-1.3,2.3-2.8h0c0.4-0.1,0.7,0.1,0.5,0.8c-0.8,2-2.4,3.7-4.1,3.2
			c-1.6-0.4-2-3.1-0.7-6.8l-0.2,0c-0.4,0-0.7,0-0.9,0c-0.4,1.3-0.9,2.7-1.6,4c-0.3,0.6-0.8,0.5-0.9,0.1c0,0,0,0,0,0
			c0.7-1.2,1.3-3.1,1.6-4.7c-0.8-0.7-0.9-1.8-0.4-2.5c0.1-0.1,0.1-0.1,0.1-0.1s0.8,0.9,2.7,0.8c3.3-0.3,3.4,0,2.7,1.8
			C114.6,24.3,114.5,26.4,115.1,26.5z"/>
		<path class="st0" d="M120.4,24.9c0.3,0.8,0.9,1.5,1.5,1.6c2,0.4,3.5-1.2,4.1-2.8h0c0.4-0.1,0.7,0.1,0.4,0.8
			c-0.7,1.7-2.8,3.8-5.8,3.2c-1.6-0.3-3.8-2.4-3.2-5.4c0.6-3,2.8-5,5.5-4.5C126.6,18.6,125.7,22.3,120.4,24.9z M120.2,24.2
			c2.5-1.7,2.8-5.2,2.1-5.4c-0.9-0.3-1.7,1.9-2.1,3.3C120,22.7,120,23.5,120.2,24.2z"/>
	</g>
</g>
</svg>
